<?xml version="1.0" encoding="UTF-8"?>
<svg version="1.1" xmlns="http://www.w3.org/2000/svg" width="128" height="128">
<path d="M0 0 C1.58312798 0.06034053 3.1664803 0.11506746 4.75 0.1640625 C8.59354805 0.28467593 12.4053087 0.51880476 16.25 0.75 C16.25 8.67 16.25 16.59 16.25 24.75 C25.82 24.75 35.39 24.75 45.25 24.75 C45.745 31.68 45.745 31.68 46.25 38.75 C47.57 37.76 48.89 36.77 50.25 35.75 C51.24 37.07 52.23 38.39 53.25 39.75 C50.28 42.72 47.31 45.69 44.25 48.75 C48.54 49.08 52.83 49.41 57.25 49.75 C57.25 55.69 57.25 61.63 57.25 67.75 C53.29 67.75 49.33 67.75 45.25 67.75 C45.26945829 72.21663048 45.32128596 76.68138359 45.40258789 81.1472168 C45.42572451 82.66501168 45.44015348 84.18296613 45.44555664 85.70092773 C45.45487922 87.8888643 45.49593151 90.07430687 45.54296875 92.26171875 C45.5586792 93.57615967 45.57438965 94.89060059 45.59057617 96.24487305 C46.40241604 100.56015811 48.05206496 101.86500507 51.25 104.75 C51.875 108.25 51.875 108.25 51.25 111.75 C48.65783917 115.44186542 47.20850936 116.57883761 42.75 117.375 C38.29149064 116.57883761 36.84216083 115.44186542 34.25 111.75 C33.625 108.25 33.625 108.25 34.25 104.75 C35.91666667 103.08333333 37.58333333 101.41666667 39.25 99.75 C39.97551798 97.02164366 40.10541721 94.59346159 40.25 91.75 C36.62 91.75 32.99 91.75 29.25 91.75 C29.33683801 95.83438085 29.44371631 99.91653044 29.5625 104 C29.58505859 105.15886719 29.60761719 106.31773438 29.63085938 107.51171875 C29.66630859 108.62675781 29.70175781 109.74179688 29.73828125 110.890625 C29.76446533 111.91704102 29.79064941 112.94345703 29.81762695 114.00097656 C30.30450197 117.09652294 31.33336186 118.34271535 33.25 120.75 C33.02962372 124.42293796 32.88033454 126.11966546 30.25 128.75 C25.1297654 129.31891496 25.1297654 129.31891496 22.25 128.75 C20.125 126.625 20.125 126.625 19.25 123.75 C20.45 118.55 20.45 118.55 22.25 116.75 C22.40786308 114.89825294 22.50107356 113.0409089 22.56640625 111.18359375 C22.60830078 110.05888672 22.65019531 108.93417969 22.69335938 107.77539062 C22.73267578 106.59138672 22.77199219 105.40738281 22.8125 104.1875 C22.87727539 102.40569336 22.87727539 102.40569336 22.94335938 100.58789062 C23.04983546 97.64205216 23.15184841 94.6961257 23.25 91.75 C20.94 91.75 18.63 91.75 16.25 91.75 C16.25 93.07 16.25 94.39 16.25 95.75 C14.93 96.08 13.61 96.41 12.25 96.75 C12.559375 97.595625 12.86875 98.44125 13.1875 99.3125 C13.25981211 103.28966608 12.77882428 103.85750112 10.1875 106.6875 C7.35750112 109.27882428 6.78966608 109.75981211 2.8125 109.6875 C1.5440625 109.2234375 1.5440625 109.2234375 0.25 108.75 C-0.245 110.73 -0.245 110.73 -0.75 112.75 C-4.71 112.75 -8.67 112.75 -12.75 112.75 C-13.08 111.43 -13.41 110.11 -13.75 108.75 C-14.595625 109.059375 -15.44125 109.36875 -16.3125 109.6875 C-20.28966608 109.75981211 -20.85750112 109.27882428 -23.6875 106.6875 C-26.27882428 103.85750112 -26.75981211 103.28966608 -26.6875 99.3125 C-26.378125 98.466875 -26.06875 97.62125 -25.75 96.75 C-27.07 96.42 -28.39 96.09 -29.75 95.75 C-29.75 94.43 -29.75 93.11 -29.75 91.75 C-32.06 91.75 -34.37 91.75 -36.75 91.75 C-36.66895774 95.81330657 -36.55612566 99.87513061 -36.4375 103.9375 C-36.40366211 105.66323242 -36.40366211 105.66323242 -36.36914062 107.42382812 C-36.33369141 108.53564453 -36.29824219 109.64746094 -36.26171875 110.79296875 C-36.23553467 111.81414795 -36.20935059 112.83532715 -36.18237305 113.88745117 C-35.69333014 117.12518583 -34.43621982 118.98443728 -32.75 121.75 C-33.95 126.95 -33.95 126.95 -35.75 128.75 C-40.93609023 129.2518797 -40.93609023 129.2518797 -43.75 128.75 C-45.8125 126.5625 -45.8125 126.5625 -46.75 123.75 C-46.51271993 120.3489856 -46.180466 119.180466 -43.75 116.75 C-43.37826984 114.1317233 -43.37826984 114.1317233 -43.3359375 111.0859375 C-43.29726563 109.96445313 -43.25859375 108.84296875 -43.21875 107.6875 C-43.1878125 106.511875 -43.156875 105.33625 -43.125 104.125 C-43.08632813 102.94164063 -43.04765625 101.75828125 -43.0078125 100.5390625 C-42.91331496 97.60963861 -42.83056001 94.6798403 -42.75 91.75 C-46.38 91.75 -50.01 91.75 -53.75 91.75 C-53.59769689 97.70517801 -53.59769689 97.70517801 -50.1875 102.3125 C-47.75 104.75 -47.75 104.75 -47.125 108.25 C-47.92116239 112.70850936 -49.05813458 114.15783917 -52.75 116.75 C-56.25 117.375 -56.25 117.375 -59.75 116.75 C-63.44186542 114.15783917 -64.57883761 112.70850936 -65.375 108.25 C-64.75 104.75 -64.75 104.75 -62.25512695 102.49926758 C-59.01766833 98.94629793 -59.09974039 97.01161247 -59.04296875 92.26171875 C-59.02784744 91.55852005 -59.01272614 90.85532135 -58.99714661 90.1308136 C-58.95438505 87.89937997 -58.94544407 85.66930191 -58.9375 83.4375 C-58.91434629 81.91858405 -58.88897911 80.39970012 -58.86132812 78.88085938 C-58.79859394 75.17059867 -58.76616556 71.46078915 -58.75 67.75 C-62.71 67.75 -66.67 67.75 -70.75 67.75 C-70.75 61.81 -70.75 55.87 -70.75 49.75 C-64.315 49.255 -64.315 49.255 -57.75 48.75 C-60.72 45.78 -63.69 42.81 -66.75 39.75 C-65.43 38.43 -64.11 37.11 -62.75 35.75 C-61.76 36.74 -60.77 37.73 -59.75 38.75 C-59.42 34.13 -59.09 29.51 -58.75 24.75 C-49.18 24.75 -39.61 24.75 -29.75 24.75 C-29.75 20.79 -29.75 16.83 -29.75 12.75 C-28.12260448 9.68344358 -27.25954215 8.2747864 -24.859375 6.046875 C-24.06487946 5.2863382 -24.06487946 5.2863382 -23.2543335 4.51043701 C-16.32479125 -1.37185399 -8.59051953 -0.57535493 0 0 Z M-12.75 5.75 C-12.75 9.71 -12.75 13.67 -12.75 17.75 C-16.71 17.75 -20.67 17.75 -24.75 17.75 C-24.75 28.31 -24.75 38.87 -24.75 49.75 C-12.87 49.75 -0.99 49.75 11.25 49.75 C11.25 35.23 11.25 20.71 11.25 5.75 C3.33 5.75 -4.59 5.75 -12.75 5.75 Z M-18.75 9.75 C-19.74 11.235 -19.74 11.235 -20.75 12.75 C-19.76 12.75 -18.77 12.75 -17.75 12.75 C-18.08 11.76 -18.41 10.77 -18.75 9.75 Z M-53.75 29.75 C-53.75 33.05 -53.75 36.35 -53.75 39.75 C-52.1 38.76 -50.45 37.77 -48.75 36.75 C-47.76 38.235 -47.76 38.235 -46.75 39.75 C-47.3996875 40.38808594 -48.049375 41.02617188 -48.71875 41.68359375 C-49.5540625 42.50988281 -50.389375 43.33617187 -51.25 44.1875 C-52.50296875 45.42306641 -52.50296875 45.42306641 -53.78125 46.68359375 C-55.86496531 48.39498098 -55.86496531 48.39498098 -55.75 49.75 C-51.13 49.75 -46.51 49.75 -41.75 49.75 C-41.75 55.69 -41.75 61.63 -41.75 67.75 C-45.71 67.75 -49.67 67.75 -53.75 67.75 C-53.75 74.02 -53.75 80.29 -53.75 86.75 C-45.83 86.75 -37.91 86.75 -29.75 86.75 C-29.75 85.43 -29.75 84.11 -29.75 82.75 C-27.77 82.255 -27.77 82.255 -25.75 81.75 C-25.87375 80.88375 -25.9975 80.0175 -26.125 79.125 C-25.66591078 74.99319703 -24.47811182 73.55285251 -21.484375 70.80859375 C-19.75 69.75 -19.75 69.75 -16.375 69.875 C-15.075625 70.308125 -15.075625 70.308125 -13.75 70.75 C-13.42 69.76 -13.09 68.77 -12.75 67.75 C-11.76 67.42 -10.77 67.09 -9.75 66.75 C-9.75 62.79 -9.75 58.83 -9.75 54.75 C-16.35 54.75 -22.95 54.75 -29.75 54.75 C-29.75 46.5 -29.75 38.25 -29.75 29.75 C-37.67 29.75 -45.59 29.75 -53.75 29.75 Z M16.25 29.75 C16.25 38 16.25 46.25 16.25 54.75 C9.65 54.75 3.05 54.75 -3.75 54.75 C-3.75 58.71 -3.75 62.67 -3.75 66.75 C-2.76 67.08 -1.77 67.41 -0.75 67.75 C-0.42 68.74 -0.09 69.73 0.25 70.75 C1.11625 70.46125 1.9825 70.1725 2.875 69.875 C6.60175504 69.73697204 7.02061277 69.92514504 9.625 72.3125 C11.89424787 74.83585635 12.23309486 75.59785374 12.625 79.125 C12.50125 79.99125 12.3775 80.8575 12.25 81.75 C13.57 82.08 14.89 82.41 16.25 82.75 C16.25 84.07 16.25 85.39 16.25 86.75 C24.17 86.75 32.09 86.75 40.25 86.75 C40.25 80.48 40.25 74.21 40.25 67.75 C36.29 67.75 32.33 67.75 28.25 67.75 C28.25 61.81 28.25 55.87 28.25 49.75 C32.87 49.75 37.49 49.75 42.25 49.75 C40.8578125 48.14125 40.8578125 48.14125 39.4375 46.5 C37.2761564 43.98098725 35.1907214 41.44544639 33.25 38.75 C34.24 38.09 35.23 37.43 36.25 36.75 C37.57 37.74 38.89 38.73 40.25 39.75 C40.25 36.45 40.25 33.15 40.25 29.75 C32.33 29.75 24.41 29.75 16.25 29.75 Z M-65.75 54.75 C-65.75 57.06 -65.75 59.37 -65.75 61.75 C-59.48 61.75 -53.21 61.75 -46.75 61.75 C-46.75 59.44 -46.75 57.13 -46.75 54.75 C-53.02 54.75 -59.29 54.75 -65.75 54.75 Z M33.25 54.75 C33.25 57.06 33.25 59.37 33.25 61.75 C39.52 61.75 45.79 61.75 52.25 61.75 C52.25 59.44 52.25 57.13 52.25 54.75 C45.98 54.75 39.71 54.75 33.25 54.75 Z M-8.75 71.75 C-9.41 73.07 -10.07 74.39 -10.75 75.75 C-13.39 75.75 -16.03 75.75 -18.75 75.75 C-20.55411967 78.50924185 -20.7627245 79.63972103 -20.375 83 C-20.065625 84.36125 -20.065625 84.36125 -19.75 85.75 C-21.4 86.08 -23.05 86.41 -24.75 86.75 C-24.75 88.4 -24.75 90.05 -24.75 91.75 C-23.1 92.08 -21.45 92.41 -19.75 92.75 C-20.08 95.72 -20.41 98.69 -20.75 101.75 C-16.57091936 103.83954032 -15.94589427 103.91552619 -11.75 102.75 C-10.76 104.4 -9.77 106.05 -8.75 107.75 C-6.30519921 107.56171228 -6.30519921 107.56171228 -3.75 106.75 C-2.38979849 104.78241727 -2.38979849 104.78241727 -1.75 102.75 C-0.079375 103.059375 -0.079375 103.059375 1.625 103.375 C2.82125 103.49875 4.0175 103.6225 5.25 103.75 C5.91 103.09 6.57 102.43 7.25 101.75 C7.27308597 99.52871445 7.27308597 99.52871445 6.875 97.125 C6.70871094 95.89910156 6.70871094 95.89910156 6.5390625 94.6484375 C6.44367188 94.02195312 6.34828125 93.39546875 6.25 92.75 C7.9 92.42 9.55 92.09 11.25 91.75 C11.25 90.1 11.25 88.45 11.25 86.75 C8.775 86.255 8.775 86.255 6.25 85.75 C6.57552083 83.73177083 6.90104167 81.71354167 7.2265625 79.6953125 C7.23429687 79.05335937 7.24203125 78.41140625 7.25 77.75 C5.48863645 75.56668311 5.48863645 75.56668311 3.3046875 75.5546875 C0.27734375 75.65234375 0.27734375 75.65234375 -2.75 75.75 C-3.41 74.43 -4.07 73.11 -4.75 71.75 C-6.07 71.75 -7.39 71.75 -8.75 71.75 Z M-57.75 104.75 C-58.41 105.41 -59.07 106.07 -59.75 106.75 C-59.4314823 108.85820797 -59.4314823 108.85820797 -58.75 110.75 C-56.85820797 111.4314823 -56.85820797 111.4314823 -54.75 111.75 C-54.09 111.09 -53.43 110.43 -52.75 109.75 C-53.0685177 107.64179203 -53.0685177 107.64179203 -53.75 105.75 C-55.64179203 105.0685177 -55.64179203 105.0685177 -57.75 104.75 Z M41.25 104.75 C40.59 105.41 39.93 106.07 39.25 106.75 C39.5685177 108.85820797 39.5685177 108.85820797 40.25 110.75 C42.14179203 111.4314823 42.14179203 111.4314823 44.25 111.75 C44.91 111.09 45.57 110.43 46.25 109.75 C45.9314823 107.64179203 45.9314823 107.64179203 45.25 105.75 C43.35820797 105.0685177 43.35820797 105.0685177 41.25 104.75 Z M-40.75 121.75 C-40.75 122.41 -40.75 123.07 -40.75 123.75 C-40.09 123.75 -39.43 123.75 -38.75 123.75 C-38.75 123.09 -38.75 122.43 -38.75 121.75 C-39.41 121.75 -40.07 121.75 -40.75 121.75 Z M25.25 121.75 C25.25 122.41 25.25 123.07 25.25 123.75 C25.91 123.75 26.57 123.75 27.25 123.75 C27.25 123.09 27.25 122.43 27.25 121.75 C26.59 121.75 25.93 121.75 25.25 121.75 Z " fill="#596CEA" transform="translate(70.75,-0.75)"/>
<path d="M0 0 C3.11770052 2.65004544 3.86456731 4.50341347 4.9375 8.4375 C5.01182167 12.67383521 4.49146172 14.57424014 2 18 C-1.98267047 20.45087413 -4.04179152 21.1461674 -8.6875 20.4375 C-12.11613499 18.9496018 -13.85900343 18.0468028 -16 15 C-17.1213777 10.96304028 -17.25020696 8.7228201 -15.875 4.75 C-11.71159916 -1.35632123 -6.83201651 -2.06876014 0 0 Z M-8 4 C-9.32 5.65 -10.64 7.3 -12 9 C-10.91215032 12.24983135 -10.91215032 12.24983135 -9 15 C-6.08461971 15.50042146 -6.08461971 15.50042146 -3 15 C-1.0645852 12.60943058 -1.0645852 12.60943058 0 10 C-1.15565651 7.46115547 -1.15565651 7.46115547 -3 5 C-5.59122743 4.11341534 -5.59122743 4.11341534 -8 4 Z " fill="#7156F1" transform="translate(70,79)"/>
<path d="M0 0 C9.9 0 19.8 0 30 0 C30 1.65 30 3.3 30 5 C20.1 5 10.2 5 0 5 C0 3.35 0 1.7 0 0 Z " fill="#3D85E2" transform="translate(49,41)"/>
<path d="M0 0 C9.9 0 19.8 0 30 0 C30 1.65 30 3.3 30 5 C20.1 5 10.2 5 0 5 C0 3.35 0 1.7 0 0 Z " fill="#348DDF" transform="translate(49,33)"/>
<path d="M0 0 C9.9 0 19.8 0 30 0 C30 1.65 30 3.3 30 5 C20.1 5 10.2 5 0 5 C0 3.35 0 1.7 0 0 Z " fill="#2996DC" transform="translate(49,24)"/>
<path d="M0 0 C5.94 0 11.88 0 18 0 C18 1.65 18 3.3 18 5 C12.06 5 6.12 5 0 5 C0 3.35 0 1.7 0 0 Z " fill="#209ED9" transform="translate(61,16)"/>
<path d="M0 0 C5.94 0 11.88 0 18 0 C18 1.65 18 3.3 18 5 C12.06 5 6.12 5 0 5 C0 3.35 0 1.7 0 0 Z " fill="#17A6D6" transform="translate(61,8)"/>
</svg>
